<svg width="146" height="48" viewBox="0 0 146 48" fill="none" xmlns="http://www.w3.org/2000/svg">
<path d="M39.4 9.48C38.2 9.48 37.2 9.85333 36.4 10.6C35.6 11.32 35.2 12.3467 35.2 13.68C35.2 15.0133 35.5333 16.2133 36.2 17.28C36.8933 18.32 37.7333 19.2133 38.72 19.96C39.7333 20.68 40.8267 21.4667 42 22.32C43.2 23.1733 44.2933 23.9867 45.28 24.76C46.2933 25.5067 47.1333 26.44 47.8 27.56C48.4933 28.68 48.84 29.8667 48.84 31.12C48.84 33.6 47.8267 35.7067 45.8 37.44C43.7733 39.1467 41.1067 40 37.8 40C34.52 40 31.92 39.2933 30 37.88C28.08 36.4667 27.12 34.8667 27.12 33.08C27.12 31.2933 27.6533 29.9067 28.72 28.92C29.7867 27.9067 31.16 27.4 32.84 27.4C33.32 27.4 33.7733 27.4533 34.2 27.56C33.3733 28.7867 32.96 30.12 32.96 31.56C32.96 32.9733 33.4 34.2 34.28 35.24C35.16 36.2533 36.32 36.76 37.76 36.76C39.2267 36.76 40.4533 36.3867 41.44 35.64C42.4267 34.8667 42.92 33.8933 42.92 32.72C42.92 31.52 42.5867 30.4667 41.92 29.56C41.2533 28.6533 40.4267 27.88 39.44 27.24C38.4533 26.5733 37.3733 25.8267 36.2 25C35.0267 24.1467 33.9467 23.2933 32.96 22.44C31.9733 21.5867 31.1467 20.5067 30.48 19.2C29.8133 17.8667 29.48 16.4133 29.48 14.84C29.48 12.3067 30.4 10.2933 32.24 8.8C34.08 7.28 36.56 6.52 39.68 6.52C42.8 6.52 45.16 7.22666 46.76 8.64C48.3867 10.0267 49.2 11.52 49.2 13.12C49.2 14.6933 48.6933 16.0267 47.68 17.12C46.6667 18.1867 45.2933 18.72 43.56 18.72C42.9733 18.72 42.4 18.6667 41.84 18.56C43.1467 17.1733 43.8 15.72 43.8 14.2C43.8 12.6533 43.3733 11.48 42.52 10.68C41.6667 9.88 40.6267 9.48 39.4 9.48ZM58.6363 39.68C57.1163 39.68 56.0229 39.4133 55.3563 38.88C54.6896 38.3467 54.3563 37.4533 54.3563 36.2C54.3563 34.9467 54.7963 31.16 55.6763 24.84C56.5829 18.4933 57.0362 13.9733 57.0362 11.28C57.0362 8.56 56.8496 6.78667 56.4763 5.96C59.1963 6.17333 60.9829 7.24 61.8363 9.16C63.8896 8.04 66.1429 7.48 68.5963 7.48C71.0763 7.48 73.0229 8.25333 74.4363 9.8C75.8763 11.32 76.5963 13.2 76.5963 15.44C76.5963 18.2133 75.5829 20.72 73.5563 22.96C72.5696 24.0267 71.2896 24.8933 69.7163 25.56C68.1696 26.2267 66.4496 26.56 64.5563 26.56C63.7563 26.56 62.9963 26.5067 62.2763 26.4L62.1563 24.72C62.2629 24.72 62.3696 24.72 62.4763 24.72C65.4896 24.72 67.8896 23.6 69.6763 21.36C70.9029 19.76 71.5163 18.08 71.5163 16.32C71.5163 13.7333 70.4629 12.0267 68.3563 11.2C66.5696 10.5333 64.5696 10.6667 62.3563 11.6V11.68C62.3563 12.6933 61.9696 16.0133 61.1963 21.64C60.4496 27.24 60.0763 31.92 60.0763 35.68C60.0763 37.36 60.1563 38.6667 60.3163 39.6C59.4629 39.6533 58.9029 39.68 58.6363 39.68ZM83.44 31.44C83.44 32.6933 83.6667 33.72 84.12 34.52C84.6 35.2933 85.2667 35.68 86.12 35.68C87.3733 35.68 88.56 34.9467 89.68 33.48C90.8267 32.0133 91.7333 30.1333 92.4 27.84C93.0933 25.5467 93.44 23.3733 93.44 21.32C93.44 19.24 93.36 17.56 93.2 16.28C94 16.2267 94.56 16.2 94.88 16.2C96.24 16.2 97.2667 16.4533 97.96 16.96C98.6533 17.4667 99 18.3733 99 19.68C99 20.1867 98.68 22.2533 98.04 25.88C97.4 29.48 97.08 32.3733 97.08 34.56C97.08 36.72 97.4933 38.64 98.32 40.32C96.32 39.9733 94.8533 39.24 93.92 38.12C92.9867 36.9733 92.52 35.3333 92.52 33.2C92.52 32.8267 92.5733 32.1067 92.68 31.04C91.96 33.5733 90.68 35.6133 88.84 37.16C87 38.7067 85.1867 39.48 83.4 39.48C81.64 39.48 80.2133 38.8267 79.12 37.52C78.0533 36.1867 77.52 34.3067 77.52 31.88C77.52 29.4533 77.9467 27.1067 78.8 24.84C79.68 22.5467 80.9867 20.6133 82.72 19.04C84.4533 17.44 86.3867 16.64 88.52 16.64C89.7467 16.64 91 16.9333 92.28 17.52C89.5867 18.48 87.44 20.3733 85.84 23.2C84.24 26 83.44 28.7467 83.44 31.44ZM109.111 29.96C109.111 34.4133 110.417 36.64 113.031 36.64C114.044 36.64 115.071 36.2933 116.111 35.6C117.151 34.9067 118.057 33.9467 118.831 32.72C119.791 32.9333 120.271 33.4267 120.271 34.2C119.151 36.1467 117.777 37.5333 116.151 38.36C114.524 39.1867 112.897 39.6 111.271 39.6C109.084 39.6 107.217 38.8 105.671 37.2C104.151 35.5733 103.391 33.2267 103.391 30.16C103.391 26.24 104.471 22.8933 106.631 20.12C108.791 17.32 111.711 15.92 115.391 15.92C117.444 15.92 118.991 16.4267 120.031 17.44C121.071 18.4267 121.591 19.6133 121.591 21C121.591 22.36 121.164 23.5467 120.311 24.56C119.484 25.5733 118.417 26.08 117.111 26.08C116.471 26.08 115.831 25.9467 115.191 25.68C115.591 25.2267 115.964 24.52 116.311 23.56C116.657 22.5733 116.831 21.6667 116.831 20.84C116.831 19.2133 116.124 18.4 114.711 18.4C113.057 18.4 111.711 19.6133 110.671 22.04C109.631 24.4667 109.111 27.1067 109.111 29.96ZM134.828 29.16C133.548 29.16 132.294 29.0133 131.068 28.72C131.041 28.9867 131.028 29.4 131.028 29.96C131.028 32.1733 131.441 33.84 132.268 34.96C133.094 36.08 134.081 36.64 135.228 36.64C136.374 36.64 137.468 36.2933 138.508 35.6C139.548 34.9067 140.454 33.9467 141.228 32.72C142.188 32.9333 142.668 33.4267 142.668 34.2C140.321 37.8 137.294 39.6 133.588 39.6C131.348 39.6 129.388 38.7467 127.708 37.04C126.028 35.3067 125.188 32.9067 125.188 29.84C125.188 27.5467 125.628 25.3733 126.508 23.32C127.388 21.24 128.788 19.4933 130.708 18.08C132.628 16.64 134.748 15.92 137.068 15.92C139.414 15.92 141.134 16.4533 142.228 17.52C143.321 18.5867 143.868 19.9867 143.868 21.72C143.868 24.2267 142.988 26.0933 141.228 27.32C139.494 28.5467 137.361 29.16 134.828 29.16ZM136.508 18.4C135.148 18.4 134.001 19.24 133.068 20.92C132.134 22.6 131.521 24.64 131.228 27.04H131.828C134.148 27.04 135.854 26.44 136.948 25.24C138.068 24.04 138.628 22.6 138.628 20.92C138.628 20.2267 138.441 19.64 138.068 19.16C137.721 18.6533 137.201 18.4 136.508 18.4Z" fill="#8BB10C"/>
<path d="M13.4 9.48C12.2 9.48 11.2 9.85333 10.4 10.6C9.6 11.32 9.2 12.3467 9.2 13.68C9.2 15.0133 9.53333 16.2133 10.2 17.28C10.8933 18.32 11.7333 19.2133 12.72 19.96C13.7333 20.68 14.8267 21.4667 16 22.32C17.2 23.1733 18.2933 23.9867 19.28 24.76C20.2933 25.5067 21.1333 26.44 21.8 27.56C22.4933 28.68 22.84 29.8667 22.84 31.12C22.84 33.6 21.8267 35.7067 19.8 37.44C17.7733 39.1467 15.1067 40 11.8 40C8.52 40 5.92 39.2933 4 37.88C2.08 36.4667 1.12 34.8667 1.12 33.08C1.12 31.2933 1.65333 29.9067 2.72 28.92C3.78667 27.9067 5.16 27.4 6.84 27.4C7.32 27.4 7.77333 27.4533 8.2 27.56C7.37333 28.7867 6.96 30.12 6.96 31.56C6.96 32.9733 7.4 34.2 8.28 35.24C9.16 36.2533 10.32 36.76 11.76 36.76C13.2267 36.76 14.4533 36.3867 15.44 35.64C16.4267 34.8667 16.92 33.8933 16.92 32.72C16.92 31.52 16.5867 30.4667 15.92 29.56C15.2533 28.6533 14.4267 27.88 13.44 27.24C12.4533 26.5733 11.3733 25.8267 10.2 25C9.02667 24.1467 7.94667 23.2933 6.96 22.44C5.97333 21.5867 5.14667 20.5067 4.48 19.2C3.81333 17.8667 3.48 16.4133 3.48 14.84C3.48 12.3067 4.4 10.2933 6.24 8.8C8.08 7.28 10.56 6.52 13.68 6.52C16.8 6.52 19.16 7.22666 20.76 8.64C22.3867 10.0267 23.2 11.52 23.2 13.12C23.2 14.6933 22.6933 16.0267 21.68 17.12C20.6667 18.1867 19.2933 18.72 17.56 18.72C16.9733 18.72 16.4 18.6667 15.84 18.56C17.1467 17.1733 17.8 15.72 17.8 14.2C17.8 12.6533 17.3733 11.48 16.52 10.68C15.6667 9.88 14.6267 9.48 13.4 9.48Z" fill="#0B1659"/>
</svg>
